<mxfile host="app.diagrams.net" modified="2022-11-15T06:39:29.213Z" agent="5.0 (Windows NT 10.0; Win64; x64) AppleWebKit/537.36 (KHTML, like Gecko) Chrome/107.0.0.0 Safari/537.36" etag="HNnra_OjwQi_EPPEBoKF" version="20.0.3" type="github">
  <diagram id="Qj70KUtxIuAm4Pbi7Q1F" name="Page-1">
    <mxGraphModel dx="1038" dy="539" grid="1" gridSize="10" guides="1" tooltips="1" connect="1" arrows="1" fold="1" page="1" pageScale="1" pageWidth="827" pageHeight="1169" math="0" shadow="0">
      <root>
        <mxCell id="0" />
        <mxCell id="1" parent="0" />
        <mxCell id="GnHxtGB8oFI1shzj-Il1-1" value="Node" style="shape=cylinder3;whiteSpace=wrap;html=1;boundedLbl=1;backgroundOutline=1;size=15;" vertex="1" parent="1">
          <mxGeometry x="130" y="140" width="60" height="80" as="geometry" />
        </mxCell>
        <mxCell id="GnHxtGB8oFI1shzj-Il1-2" value="Link" style="shape=cylinder3;whiteSpace=wrap;html=1;boundedLbl=1;backgroundOutline=1;size=15;" vertex="1" parent="1">
          <mxGeometry x="290" y="140" width="60" height="80" as="geometry" />
        </mxCell>
        <mxCell id="GnHxtGB8oFI1shzj-Il1-3" value="&lt;ul&gt;&lt;li&gt;id&lt;/li&gt;&lt;li&gt;label&lt;/li&gt;&lt;li&gt;category&lt;/li&gt;&lt;li&gt;desc&lt;/li&gt;&lt;li&gt;table_name&lt;/li&gt;&lt;li&gt;table_schema&lt;/li&gt;&lt;li&gt;table_comment&lt;/li&gt;&lt;/ul&gt;" style="text;strokeColor=none;fillColor=none;html=1;whiteSpace=wrap;verticalAlign=middle;overflow=hidden;" vertex="1" parent="1">
          <mxGeometry x="110" y="220" width="100" height="170" as="geometry" />
        </mxCell>
        <mxCell id="GnHxtGB8oFI1shzj-Il1-4" value="" style="endArrow=classic;startArrow=classic;html=1;rounded=0;exitX=1;exitY=0.5;exitDx=0;exitDy=0;exitPerimeter=0;entryX=0;entryY=0.5;entryDx=0;entryDy=0;entryPerimeter=0;" edge="1" parent="1" source="GnHxtGB8oFI1shzj-Il1-1" target="GnHxtGB8oFI1shzj-Il1-2">
          <mxGeometry width="50" height="50" relative="1" as="geometry">
            <mxPoint x="390" y="280" as="sourcePoint" />
            <mxPoint x="440" y="230" as="targetPoint" />
            <Array as="points">
              <mxPoint x="230" y="180" />
            </Array>
          </mxGeometry>
        </mxCell>
        <mxCell id="GnHxtGB8oFI1shzj-Il1-6" value="&lt;ul&gt;&lt;li&gt;id&lt;/li&gt;&lt;li&gt;node_id&lt;/li&gt;&lt;li&gt;from&lt;/li&gt;&lt;li&gt;to&lt;/li&gt;&lt;li&gt;label&lt;/li&gt;&lt;li&gt;arrows&lt;/li&gt;&lt;li&gt;title&lt;/li&gt;&lt;li&gt;&lt;br&gt;&lt;/li&gt;&lt;/ul&gt;" style="text;strokeColor=none;fillColor=none;html=1;whiteSpace=wrap;verticalAlign=middle;overflow=hidden;" vertex="1" parent="1">
          <mxGeometry x="275" y="220" width="90" height="160" as="geometry" />
        </mxCell>
      </root>
    </mxGraphModel>
  </diagram>
</mxfile>
